HIERARCHY
ROOT Hips
{
	OFFSET 0.0000 0.0000 0.0000
	CHANNELS 6 Xposition Yposition Zposition Zrotation Xrotation Yrotation
	JOINT Ab
	{
		OFFSET -0.0000 8.0846 -0.0000
		CHANNELS 3 Zrotation Xrotation Yrotation
		JOINT Chest
		{
			OFFSET -0.0000 25.0068 -0.0000
			CHANNELS 3 Zrotation Xrotation Yrotation
			JOINT Neck
			{
				OFFSET -0.0000 25.0068 0.0000
				CHANNELS 3 Zrotation Xrotation Yrotation
				JOINT Head
				{
					OFFSET -0.0000 10.7556 0.0000
					CHANNELS 3 Zrotation Xrotation Yrotation
					End Site
					{
						OFFSET -0.0000 16.6222 0.0000
					}
				}
			}
			JOINT LeftCollar
			{
				OFFSET -0.0000 25.0068 0.0000
				CHANNELS 3 Zrotation Xrotation Yrotation
				JOINT LeftShoulder
				{
					OFFSET 19.5556 -0.0000 0.0000
					CHANNELS 3 Zrotation Xrotation Yrotation
					JOINT LeftElbow
					{
						OFFSET 27.1828 0.0000 0.0000
						CHANNELS 3 Zrotation Xrotation Yrotation
						JOINT LeftWrist
						{
							OFFSET 23.3157 0.0000 0.0000
							CHANNELS 3 Zrotation Xrotation Yrotation
							End Site
							{
								OFFSET 0.0000 -14.6667 0.0000
							}
						}
					}
				}
			}
			JOINT RightCollar
			{
				OFFSET -0.0000 25.0068 0.0000
				CHANNELS 3 Zrotation Xrotation Yrotation
				JOINT RightShoulder
				{
					OFFSET -19.5556 0.0000 0.0000
					CHANNELS 3 Zrotation Xrotation Yrotation
					JOINT RightElbow
					{
						OFFSET -27.1828 0.0000 0.0000
						CHANNELS 3 Zrotation Xrotation Yrotation
						JOINT RightWrist
						{
							OFFSET -23.3157 0.0000 0.0000
							CHANNELS 3 Zrotation Xrotation Yrotation
							End Site
							{
								OFFSET -0.0000 -14.6667 0.0000
							}
						}
					}
				}
			}
		}
	}
	JOINT LeftHip
	{
		OFFSET 11.7333 0.0000 0.0000
		CHANNELS 3 Zrotation Xrotation Yrotation
		JOINT LeftKnee
		{
			OFFSET -0.0000 -40.8688 0.0000
			CHANNELS 3 Zrotation Xrotation Yrotation
			JOINT LeftAnkle
			{
				OFFSET -0.0000 -44.4337 0.0000
				CHANNELS 3 Zrotation Xrotation Yrotation
				End Site
				{
					OFFSET -0.0000 -4.8889 16.6222
				}
			}
		}
	}
	JOINT RightHip
	{
		OFFSET -11.7333 0.0000 0.0000
		CHANNELS 3 Zrotation Xrotation Yrotation
		JOINT RightKnee
		{
			OFFSET -0.0000 -40.8688 0.0000
			CHANNELS 3 Zrotation Xrotation Yrotation
			JOINT RightAnkle
			{
				OFFSET -0.0000 -44.4337 0.0000
				CHANNELS 3 Zrotation Xrotation Yrotation
				End Site
				{
					OFFSET -0.0000 -4.8889 16.6222
				}
			}
		}
	}
}
MOTION
Frames: 15
Frame Time: 0.010000
-4.1629 88.8181 191.2195 2.4681 359.3393 177.3366 1.6336 358.6274 358.1471 358.7794 11.7843 358.2548 1.6021 344.0130 1.0504 2.8244 10.8261 0.5547 338.9467 358.6244 7.4700 301.4354 30.7607 354.2622 16.0214 354.4764 322.1450 82.4968 2.0891 341.7933 22.1985 359.2534 356.1722 60.2197 43.2590 8.2702 337.8827 354.2114 28.7691 277.9213 353.1928 19.5240 1.8719 357.2203 357.3632 359.2208 10.7033 357.5960 359.6311 352.4087 21.5051 1.8684 351.8134 359.0884 359.3536 18.0061 7.2896 356.4858 345.5398 337.6384 
-4.1959 88.8191 191.2168 2.4786 359.3087 177.3636 1.6244 358.6178 358.1484 358.7785 11.7691 358.2548 1.5855 344.0677 0.9502 2.7243 10.8284 0.4614 338.9378 358.6000 7.5041 301.4754 30.9963 354.2362 16.1785 354.4041 322.1941 82.3787 2.0670 341.9238 22.1840 359.2541 356.1720 60.2341 43.2829 8.2510 337.7973 354.2193 28.8122 277.9409 353.2496 19.5085 1.8641 357.2257 357.4478 359.2641 10.6219 357.4231 359.6176 352.4429 21.5224 1.8555 351.7914 359.0634 359.3569 17.9939 7.2249 356.5358 345.5313 337.6984 
-4.2346 88.8185 191.2087 2.4753 359.3055 177.3614 1.6090 358.6373 358.1642 358.7744 11.7538 358.2716 1.5655 344.0470 0.9123 2.7164 10.9092 0.4279 338.9296 358.6164 7.5121 301.4747 30.9714 354.2316 16.1102 354.4641 322.2552 82.4307 2.0126 341.8698 22.1746 359.2454 356.1861 60.2253 43.2408 8.2223 337.7997 354.2177 28.8632 277.9426 353.2556 19.4857 1.8333 357.1638 357.3650 359.2247 10.7489 357.5772 359.6720 352.3901 21.4961 1.8249 351.7936 359.0823 359.3615 17.9852 7.1914 356.4031 345.5635 337.6942 
-4.2701 88.8193 191.2009 2.4803 359.2976 177.3525 1.6121 358.6548 358.1704 358.7444 11.7338 358.2813 1.5444 344.0568 0.8799 2.7196 10.9447 0.3987 338.9465 358.6221 7.4884 301.4016 30.8170 354.2828 16.0571 354.4843 322.1925 82.4093 2.0530 341.7214 22.1930 359.2530 356.1828 60.1693 43.1984 8.2381 337.9950 354.2884 28.8962 277.7004 353.2249 20.0765 1.8248 357.1506 357.3466 359.2140 10.7653 357.5260 359.7033 352.3747 21.5471 1.8100 351.7894 359.1318 359.3654 17.9837 7.1781 356.5733 345.5248 337.7104 
-4.3113 88.8196 191.1859 2.4783 359.3071 177.3489 1.5966 358.6726 358.1804 358.7297 11.7326 358.2925 1.5576 344.0715 0.8359 2.6357 10.9917 0.3629 338.9591 358.6066 7.4645 301.3466 30.7250 354.3483 16.0182 354.4995 322.1524 82.4423 2.0542 341.6689 22.1883 359.2478 356.1914 60.1544 43.1997 8.2382 338.0015 354.2767 28.9363 277.7015 353.2274 20.2120 1.7925 357.1614 357.4122 359.2164 10.7848 357.5019 359.7304 352.3609 21.5313 1.7777 351.8214 359.1670 359.3788 17.9539 7.1276 356.5999 345.5257 337.7384 
-4.3551 88.8182 191.1737 2.4876 359.3132 177.3609 1.5914 358.6870 358.1830 358.7305 11.7369 358.2960 1.5273 344.0616 0.7869 2.5766 11.0501 0.3170 338.9487 358.6347 7.4552 301.3422 30.7135 354.3525 15.8950 354.5530 322.1987 82.7148 1.9825 341.7165 22.1763 359.2525 356.1973 60.1396 43.1657 8.2405 338.0309 354.2617 28.9626 277.6570 353.2230 20.2661 1.7765 357.1622 357.3994 359.2235 10.8024 357.4164 359.7484 352.3487 21.5781 1.7518 351.8450 359.1807 359.3957 17.9337 7.0489 356.4764 345.5540 337.7586 
-4.4056 88.8153 191.1590 2.4884 359.3293 177.3547 1.5985 358.7154 358.1877 358.6988 11.7296 358.3034 1.4629 344.0878 0.7180 2.5740 11.0838 0.2574 338.9548 358.6130 7.4712 301.3098 30.7464 354.3731 15.9831 354.4941 322.1628 82.4619 2.0014 341.6515 22.1676 359.2697 356.2309 60.1332 43.1369 8.2250 338.0229 354.2675 28.9937 277.7547 353.2468 20.2740 1.7531 357.1810 357.3744 359.1958 10.8128 357.4314 359.7632 352.3311 21.5956 1.7138 351.8750 359.2106 359.4051 17.9225 7.0535 356.4848 345.5496 337.7409 
-4.4567 88.8143 191.1361 2.4898 359.3600 177.3527 1.5887 358.7393 358.1980 358.6833 11.7458 358.3161 1.4275 344.0857 0.6754 2.5655 11.1425 0.2184 338.9580 358.6218 7.4605 301.2540 30.6598 354.4049 15.8565 354.5703 322.1854 82.7730 1.9136 341.6675 22.1548 359.2627 356.2457 60.1073 43.1626 8.2284 337.9691 354.2425 29.0254 277.8122 353.2458 20.2454 1.7225 357.2276 357.4255 359.1995 10.8105 357.3415 359.8455 352.3354 21.6401 1.6743 351.9278 359.2491 359.4221 17.9030 7.0192 356.6275 345.5161 337.7769 
-4.5100 88.8137 191.1192 2.4919 359.3683 177.3499 1.5749 358.7492 358.2121 358.6749 11.7457 358.3324 1.3972 344.1088 0.6428 2.5566 11.1891 0.1875 338.9417 358.6051 7.5490 301.2995 31.0695 354.3121 16.0739 354.4472 322.3395 82.6844 1.8455 341.9035 22.1347 359.2751 356.2492 60.0619 43.2564 8.2955 337.9547 354.2456 28.9170 277.7871 353.1653 20.1344 1.6952 357.2439 357.4326 359.1855 10.8158 357.3364 359.8772 352.3352 21.6368 1.6311 351.9587 359.2925 359.4480 17.8774 6.9488 356.6502 345.5139 337.8120 
-4.5737 88.8111 191.1034 2.4883 359.3744 177.3511 1.5803 358.7552 358.2214 358.6379 11.7604 358.3452 1.3919 344.1000 0.6158 2.5248 11.2536 0.1650 338.9279 358.5753 7.6457 301.3628 31.5300 354.2118 16.3332 354.3489 322.5013 82.5570 1.7652 342.2019 22.1290 359.2670 356.2472 60.0104 43.3024 8.3388 337.9034 354.2398 28.9057 277.8051 353.1311 20.0897 1.6530 357.2602 357.4128 359.1729 10.8159 357.3380 359.8998 352.3298 21.6417 1.5682 351.9882 359.3381 359.4879 17.8473 6.9068 356.6971 345.5031 337.8301 
-4.6357 88.8120 191.0902 2.4898 359.3746 177.3526 1.5733 358.7612 358.2289 358.6302 11.7633 358.3534 1.3772 344.1409 0.5568 2.4087 11.2957 0.1105 338.9093 358.5679 7.7016 301.3809 31.7286 354.1522 16.4524 354.3516 322.6094 82.3855 1.7474 342.3126 22.1172 359.2595 356.2617 59.9608 43.2828 8.3514 337.9385 354.2354 28.9494 277.7263 353.1585 20.1196 1.6219 357.2789 357.4188 359.1600 10.7974 357.2939 0.0911 352.3625 21.7135 1.5212 352.0022 359.3769 359.5069 17.8331 6.8661 356.6983 345.4916 337.8451 
-4.7018 88.8124 191.0738 2.4965 359.3737 177.3736 1.5824 358.7690 358.2288 358.5989 11.7467 358.3560 1.3545 344.2232 0.4528 2.2973 11.3321 0.0336 338.8999 358.5831 7.7132 301.3903 31.8714 354.1348 16.5562 354.3330 322.6636 82.1496 1.7711 342.3631 22.1225 359.2690 356.2586 59.8902 43.2459 8.3915 338.0089 354.2489 28.9872 277.7407 353.2123 20.1654 1.5900 357.3154 357.4614 359.1664 10.7333 357.2405 0.0617 352.3810 21.6881 1.4731 352.0313 359.4264 359.5421 17.8043 6.7668 356.6299 345.4944 337.8762 
-4.7734 88.8133 191.0632 2.4956 359.3562 177.3952 1.5715 358.7571 358.2282 358.5960 11.7480 358.3557 1.2841 344.2713 0.3532 2.2539 11.3753 359.9656 338.8891 358.5715 7.7047 301.3510 31.9197 354.1606 16.6009 354.3250 322.6545 82.1182 1.7488 342.3886 22.1084 359.2604 356.2606 59.8219 43.2343 8.4403 338.0154 354.2309 29.0275 277.8192 353.2541 20.1879 1.5586 357.2971 357.3883 359.1235 10.7329 357.2829 0.0562 352.3876 21.6891 1.4138 352.0353 359.4762 359.5746 17.7827 6.7082 356.6904 345.4761 337.8997 
-4.8453 88.8154 191.0465 2.4977 359.3662 177.3943 1.5601 358.7780 358.2404 358.5865 11.7334 358.3693 1.2223 344.3143 0.3117 2.2862 11.4235 359.9300 338.8801 358.5789 7.6713 301.2758 31.7343 354.2278 16.4738 354.3998 322.5874 82.1319 1.7700 342.2295 22.1018 359.2740 356.2860 59.7726 43.2237 8.4566 337.9998 354.2109 29.0582 277.7345 353.4749 19.9550 1.5268 357.3199 357.3381 359.0850 10.7246 357.3186 0.1226 352.4057 21.7084 1.3655 352.0670 359.5391 359.5923 17.7549 6.6676 356.7700 345.4571 337.9041 
-4.9232 88.8158 191.0261 2.5023 359.3800 177.3910 1.5472 358.7931 358.2626 358.5791 11.7385 358.3937 1.1513 344.2871 0.2856 2.3482 11.5630 359.8683 338.8657 358.5711 7.6745 301.2510 31.7606 354.2289 16.4503 354.4052 322.5569 82.1230 1.8043 342.1872 22.0864 359.2763 356.2857 59.7158 43.3121 8.5252 337.8574 354.1753 28.9830 277.7135 353.5235 19.5424 1.4824 357.3279 357.2944 359.0661 10.7564 357.3683 0.2252 352.4026 21.7090 1.3158 352.1038 359.6107 359.6140 17.7339 6.6447 356.7255 345.4898 337.9359 
